<svg t="1722845178611" class="icon" viewBox="0 0 1024 1024" version="1.1" xmlns="http://www.w3.org/2000/svg" p-id="1633" id="mx_n_1722845178613" width="256" height="256"><path d="M833.28 79.744a32 32 0 1 0-45.184 45.312L861.44 198.4H341.312a288 288 0 0 0-288 288 32 32 0 1 0 64 0 224 224 0 0 1 224-224h520.128l-73.344 73.344a32 32 0 1 0 45.248 45.312l128-128a32 32 0 0 0 0-45.312l-128-128zM938.688 505.6a32 32 0 0 1 32 32 288 288 0 0 1-288 288H162.56l73.344 73.344a32 32 0 1 1-45.248 45.312l-128-128a31.936 31.936 0 0 1 0-45.248l128-128a32 32 0 1 1 45.248 45.248L162.56 761.6h520.064a224 224 0 0 0 224-224 32 32 0 0 1 32-32zM534.4 361.152c5.952 5.824 9.6 13.888 9.6 22.848v256a32 32 0 1 1-64 0V448l-51.2 38.4a32 32 0 0 1-38.4-51.2l102.208-76.672A31.872 31.872 0 0 1 512 352H512a31.872 31.872 0 0 1 22.4 9.152z" p-id="1634" fill="#fca5a5"></path></svg>